<svg id="SvgjsSvg1001" width="288" height="288" xmlns="http://www.w3.org/2000/svg" version="1.1" xmlns:xlink="http://www.w3.org/1999/xlink" xmlns:svgjs="http://svgjs.com/svgjs"><defs id="SvgjsDefs1002"></defs><g id="SvgjsG1008" transform="matrix(1,0,0,1,0,0)"><svg xmlns="http://www.w3.org/2000/svg" width="288" height="288" version="1.0" viewBox="0 0 1920 1080"><g transform="matrix(.1 0 0 -.1 0 1080)" fill="#005a9b" class="color000 svgShape"><path d="M9571 10389 c-515 -30 -1062 -152 -1561 -350 -165 -65 -504 -232-660 -324 -577 -342 -1073 -785 -1467 -1310 -1123 -1498 -1306 -3505 -471
-5179 251 -504 561 -930 965 -1327 384 -377 769 -654 1243 -893 605 -306 1225
-476 1919 -527 203 -15 649 -7 851 15 818 90 1580 364 2245 809 1576 1055
2414 2888 2174 4762 -130 1012 -574 1967 -1266 2720 -1017 1107 -2463 1690
-3972 1604z m574 -559 c1587 -101 2982 -1028 3689 -2450 411 -828 547 -1744
396 -2680 -25 -154 -96 -447 -145 -600 -281 -872 -817 -1626 -1552 -2183 -658
-498 -1447 -800 -2279 -873 -231 -20 -675 -15 -884 10 -726 88 -1410 342
-1993 742 -1429 980 -2151 2677 -1862 4380 179 1056 750 2021 1597 2697 855
683 1943 1026 3033 957z" fill="#005a9b" class="color000 svgShape"></path><path d="M8776 6310c-350-226-641-411-647-413-5-1-22 30-37 68-76 191-196 344-357 455-80 55-232 120-343 147-106 25-110 25-644 30l-538 5 0-1042 0-1042 533 5c587 5 620 8 786 70 230 86 392 227 509 442 27 50 60 120 72 158 12 37 23 67 25 67 2 0 290-193 640-430 349-236 639-430 644-430 5 0 289 180 630 400 342 220 624 400 626 400 3 0 5-153 5-340l0-340 705 0 705 0 0 330 0 330-335 0-335 0 0 710 0 710-370 0-370 0 0-357 0-358-502-318c-275-176-506-321-512-323-6-2-49 19-95 47-69 42-81 53-70 64 8 7 228 153 489 325 261 172 479 316 483 319 4 4-89 72-206 150l-214 142-494-313c-272-173-499-317-506-321-13-8-174 92-170 105 1 4 223 150 492 323 270 174 491 319 492 323 2 6-389 275-441 304-8 5-259-151-650-402zm-1512-388c83-38 131-85 173-169 37-75 38-80 38-188 0-105-2-114-33-177-21-44-51-84-88-117-77-71-146-91-310-91l-124 0 0 386 0 386 148-4c126-3 154-6 196-26zM12280 5560l0-1040 705 0 705 0 0 330 0 330-330 0-330 0-2 708-3 707-372 3-373 2 0-1040z" fill="#005a9b" class="color000 svgShape"></path></g></svg></g></svg>